<?xml version="1.0" standalone="no"?>
<!DOCTYPE svg PUBLIC "-//W3C//DTD SVG 20010904//EN"
 "http://www.w3.org/TR/2001/REC-SVG-20010904/DTD/svg10.dtd">
<svg version="1.0" xmlns="http://www.w3.org/2000/svg"
 width="1504.000000pt" height="1504.000000pt" viewBox="0 0 1504.000000 1504.000000"
 preserveAspectRatio="xMidYMid meet">
<metadata>
Created by potrace 1.14, written by Peter Selinger 2001-2017
</metadata>
<g transform="translate(0.000000,1504.000000) scale(0.100000,-0.100000)"
fill="#000000" stroke="none">
<path d="M1439 11013 c-1 -16 0 -32 1 -38 1 -5 2 -16 1 -22 0 -7 -1 -21 -1
-30 0 -26 -1 -73 -3 -110 -1 -18 1 -33 6 -33 4 0 6 -4 3 -9 -8 -12 -11 -139
-4 -147 4 -3 3 -16 -1 -28 -8 -20 -11 -31 -11 -40 0 -3 -13 -1 -30 4 -16 5
-32 5 -35 0 -3 -4 -20 -4 -39 0 -19 4 -40 4 -47 -1 -7 -4 -17 -5 -21 -3 -11 7
-116 9 -123 2 -3 -3 -24 -2 -46 2 -36 7 -41 5 -49 -14 -4 -11 -4 -22 0 -24 5
-2 5 -15 1 -30 -5 -15 -5 -36 -1 -47 4 -11 4 -33 0 -50 -4 -17 -3 -41 1 -53 5
-12 4 -24 -1 -27 -5 -3 -6 -16 -1 -28 4 -12 5 -33 1 -47 -3 -14 -3 -42 1 -63
3 -20 3 -40 -2 -43 -11 -7 7 -50 20 -47 6 2 11 -1 11 -6 0 -6 12 -6 30 -1 17
5 30 6 30 2 0 -4 14 -7 30 -7 17 0 30 3 30 7 0 3 12 3 27 -1 15 -4 47 -4 70
-1 24 4 46 3 49 -1 2 -5 15 -4 28 1 13 5 27 6 30 3 9 -9 76 -9 76 0 0 5 5 5
10 2 14 -9 145 -9 158 -1 6 3 13 2 17 -3 3 -7 15 -7 30 -1 15 6 27 6 30 0 3
-6 15 -6 30 0 14 5 27 5 30 0 3 -5 18 -5 34 0 15 4 34 5 40 0 16 -9 64 0 73
13 4 6 3 18 -2 27 -5 9 -5 22 0 29 4 8 4 27 0 42 -5 16 -5 29 0 29 5 0 5 13 0
30 -5 17 -5 30 0 30 5 0 5 13 0 30 -5 17 -5 30 0 30 5 0 5 13 0 30 -5 17 -5
32 0 35 5 3 5 16 0 30 -6 15 -6 27 0 30 5 3 6 15 1 27 -13 34 -2 66 25 71 13
2 24 1 24 -2 0 -7 99 -6 106 2 3 3 17 2 32 -2 15 -4 44 -4 64 -1 21 4 38 5 38
1 0 -5 96 -6 110 0 3 1 10 0 15 -1 23 -5 296 0 305 5 6 3 10 3 10 -2 0 -4 24
-7 52 -5 29 2 62 3 73 2 27 -2 31 -2 98 0 32 1 60 0 63 -3 3 -2 21 -1 40 3 18
4 34 5 34 1 0 -3 24 -5 52 -3 61 3 64 3 123 2 24 -1 49 1 55 5 5 3 10 3 10 -2
0 -9 97 -9 106 0 3 3 17 2 32 -2 15 -4 44 -4 64 -1 21 4 38 5 38 1 0 -5 96 -6
110 0 3 1 10 0 15 -1 23 -5 296 0 305 5 6 3 10 3 10 -2 0 -4 24 -7 52 -5 29 2
62 3 73 2 27 -2 31 -2 98 0 32 1 60 0 63 -3 3 -2 21 -1 40 3 18 4 34 5 34 1 0
-3 24 -5 52 -3 61 3 64 3 123 2 24 -1 49 1 55 5 5 3 10 3 10 -2 0 -9 97 -9
106 0 3 3 17 2 32 -2 15 -4 44 -4 64 -1 21 4 38 5 38 1 0 -5 96 -6 110 0 3 1
10 0 15 -1 24 -4 284 -2 292 3 5 3 15 2 22 -3 8 -4 26 -4 41 0 15 4 33 4 40 0
7 -4 26 -4 41 0 16 5 31 5 34 0 3 -4 20 -5 38 -1 18 5 41 5 52 1 11 -4 29 -4
41 0 11 5 27 5 34 0 7 -4 25 -4 40 0 15 4 33 4 40 0 7 -4 26 -4 41 0 16 5 31
5 34 0 2 -4 19 -5 37 -1 18 4 52 4 76 1 23 -4 42 -4 42 0 0 4 17 4 38 0 20 -3
49 -3 64 1 15 4 29 4 32 1 3 -3 27 -4 54 -3 51 2 57 2 118 1 23 -1 46 0 50 1
5 1 14 0 19 -1 6 -1 30 -1 55 -1 51 2 59 2 116 1 23 -1 46 0 50 1 5 1 14 0 19
-1 6 -1 30 -1 55 -1 51 2 59 2 116 1 23 -1 46 0 50 1 5 1 14 0 19 -1 6 -1 30
-1 55 -1 51 2 59 2 116 1 23 -1 46 0 50 1 5 1 14 0 19 -1 23 -4 164 -2 172 3
5 3 15 2 22 -3 8 -4 26 -4 41 0 15 4 33 4 40 0 7 -4 26 -4 41 0 16 5 31 5 34
0 3 -4 20 -5 38 -1 18 5 41 5 52 1 11 -4 29 -4 41 0 11 5 27 5 34 0 7 -4 25
-4 40 0 15 4 33 4 40 0 7 -4 26 -4 41 0 16 5 31 5 34 0 3 -4 21 -4 40 0 20 4
48 5 63 1 15 -4 44 -4 64 -1 21 4 38 5 38 1 0 -7 99 -6 106 2 3 3 17 2 32 -2
15 -4 44 -4 64 -1 21 4 38 5 38 1 0 -5 96 -6 110 0 3 1 9 0 15 -1 8 -1 41 -1
148 1 9 0 37 -1 62 -1 24 -1 49 1 55 5 5 3 10 3 10 -2 0 -4 24 -7 52 -5 61 3
64 3 123 2 24 -1 49 1 55 5 5 3 10 3 10 -2 0 -4 24 -7 52 -5 64 3 51 3 174 1
56 -1 106 1 111 4 5 3 15 2 22 -3 8 -4 26 -4 41 0 15 4 33 4 40 0 7 -4 26 -4
41 0 16 5 31 5 34 0 3 -4 20 -5 38 -1 18 5 41 5 52 1 11 -4 29 -4 41 0 11 5
27 5 34 0 7 -4 25 -4 40 0 15 4 33 4 40 0 7 -4 26 -4 41 0 16 5 31 5 34 0 2
-4 19 -5 37 -1 18 4 52 4 76 1 23 -4 42 -4 42 0 0 4 17 4 38 0 20 -3 49 -3 64
1 15 4 29 4 32 1 3 -3 27 -4 54 -3 51 2 57 2 118 1 23 -1 46 0 50 1 5 1 14 0
19 -1 6 -1 30 -1 55 -1 51 2 59 2 116 1 23 -1 46 0 50 1 5 1 14 0 19 -1 6 -1
30 -1 55 -1 51 2 59 2 116 1 23 -1 46 0 50 1 5 1 14 0 19 -1 6 -1 30 -1 55 -1
51 2 59 2 116 1 23 -1 46 0 50 1 5 1 14 0 19 -1 23 -4 164 -2 172 3 5 3 15 2
22 -3 8 -4 26 -4 41 0 15 4 33 4 40 0 7 -4 26 -4 41 0 16 5 31 5 34 0 3 -4 20
-5 38 -1 18 5 41 5 52 1 11 -4 29 -4 41 0 11 5 27 5 34 0 7 -4 25 -4 40 0 15
4 33 4 40 0 7 -4 26 -4 41 0 16 5 31 5 34 0 3 -4 21 -4 40 0 20 4 48 5 63 1
15 -4 44 -4 64 -1 21 4 38 5 38 1 0 -7 99 -6 106 2 3 3 17 2 32 -2 15 -4 44
-4 64 -1 21 4 38 5 38 1 0 -5 96 -6 110 0 3 1 9 0 15 -1 8 -1 41 -1 148 1 9 0
37 -1 62 -1 24 -1 49 1 55 5 5 3 10 3 10 -2 0 -4 24 -7 52 -5 61 3 64 3 123 2
24 -1 49 1 55 5 5 3 10 3 10 -2 0 -4 24 -7 52 -5 64 3 51 3 174 1 56 -1 106 1
111 4 5 3 15 2 22 -3 8 -4 26 -4 41 0 15 4 33 4 40 0 7 -4 26 -4 41 0 16 5 31
5 34 0 3 -4 20 -5 38 -1 18 5 41 5 52 1 11 -4 29 -4 41 0 11 5 27 5 34 0 7 -4
25 -4 40 0 15 4 33 4 40 0 7 -4 26 -4 41 0 16 5 31 5 34 0 2 -4 19 -5 37 -1
18 4 52 4 76 1 23 -4 42 -4 42 0 0 4 17 4 38 0 20 -3 49 -3 64 1 15 4 29 4 32
1 3 -3 27 -4 54 -3 51 2 57 2 118 1 23 -1 46 0 50 1 5 1 14 0 19 -1 6 -1 30
-1 55 -1 51 2 59 2 116 1 23 -1 46 0 50 1 5 1 14 0 19 -1 6 -1 30 -1 55 -1 51
2 59 2 116 1 23 -1 46 0 50 1 5 1 14 0 19 -1 6 -1 30 -1 55 -1 131 4 140 2
131 -22 -5 -12 -5 -31 -1 -42 4 -11 5 -24 3 -28 -5 -8 -7 -150 -3 -172 2 -5 1
-14 0 -20 -4 -18 -1 -187 3 -192 3 -2 1 -20 -3 -39 -4 -19 -4 -36 0 -39 4 -3
4 -21 0 -40 -4 -19 -4 -37 0 -40 4 -3 4 -21 0 -40 -4 -20 -4 -38 1 -41 5 -3 7
-10 3 -15 -5 -9 -8 -150 -4 -174 1 -5 1 -14 0 -20 -4 -18 -1 -187 3 -192 3 -2
1 -20 -3 -39 -4 -19 -4 -36 0 -39 4 -3 4 -21 0 -40 -4 -19 -4 -37 0 -40 4 -3
4 -21 0 -40 -4 -20 -4 -38 1 -41 5 -3 7 -10 3 -15 -5 -9 -8 -150 -4 -174 1 -5
1 -14 0 -20 -4 -18 -1 -187 3 -192 3 -2 1 -20 -3 -39 -5 -19 -4 -37 1 -40 5
-3 6 -10 3 -16 -4 -6 -6 -56 -5 -112 1 -55 2 -108 2 -116 -2 -96 -2 -137 -1
-145 1 -6 1 -14 0 -20 -1 -5 -1 -39 0 -75 1 -36 1 -72 1 -80 -1 -8 -1 -44 0
-80 0 -36 0 -71 0 -77 0 -7 0 -33 0 -58 0 -55 0 -59 -2 -115 0 -25 0 -49 1
-55 4 -25 0 -146 -5 -155 -3 -5 -1 -11 5 -15 6 -4 8 -11 4 -16 -5 -9 -8 -150
-4 -174 1 -5 1 -14 0 -20 -4 -18 -1 -187 3 -192 3 -2 1 -20 -3 -39 -5 -19 -4
-37 1 -40 5 -3 7 -10 3 -15 -3 -6 -5 -46 -5 -90 2 -90 2 -88 0 -149 0 -25 0
-49 1 -55 1 -5 2 -14 1 -19 -1 -4 -1 -54 -1 -110 1 -112 1 -116 -1 -201 0 -33
0 -65 1 -70 1 -6 1 -14 0 -20 -1 -5 -1 -39 0 -75 1 -36 1 -72 1 -80 -1 -8 0
-44 0 -80 0 -36 0 -73 0 -82 0 -21 -1 -60 -1 -85 0 -58 -3 -72 -16 -77 -8 -3
-14 -1 -14 4 0 5 -12 5 -29 0 -16 -4 -32 -6 -35 -3 -3 3 -32 5 -63 4 -32 -1
-67 -1 -78 -1 -11 1 -24 1 -30 1 -5 0 -34 -1 -63 -2 -29 -1 -55 0 -58 4 -3 3
-19 1 -35 -3 -17 -5 -31 -5 -35 1 -8 13 -26 0 -21 -15 3 -7 2 -19 -3 -26 -4
-7 -4 -26 0 -41 5 -16 5 -29 1 -29 -5 0 -5 -18 -1 -39 4 -22 4 -45 0 -52 -4
-6 -4 -25 0 -40 5 -16 6 -29 2 -29 -8 0 -7 -133 0 -146 3 -5 2 -18 -2 -29 -4
-11 -4 -29 0 -41 5 -11 5 -27 0 -34 -4 -7 -4 -26 0 -41 5 -16 6 -29 2 -29 -8
0 -7 -133 0 -146 3 -5 2 -18 -2 -29 -4 -11 -4 -29 0 -41 5 -11 5 -27 0 -34 -4
-7 -4 -26 0 -41 5 -16 5 -29 1 -29 -5 0 -6 -11 -3 -25 2 -14 7 -24 9 -21 3 3
16 1 29 -4 14 -6 26 -6 29 1 4 5 11 6 17 3 14 -9 114 -8 128 1 5 3 10 3 10 -2
0 -8 110 -7 118 1 2 3 15 1 28 -4 14 -6 26 -6 29 0 3 5 16 6 28 1 31 -11 69 0
58 18 -5 7 -5 28 -1 47 4 19 5 36 1 38 -4 3 -4 33 -1 68 3 35 3 85 -1 111 -3
27 -2 50 2 53 4 2 3 19 -1 38 -4 19 -4 40 0 47 5 7 6 18 3 26 -11 29 4 42 41
33 22 -5 36 -4 36 2 0 5 4 6 10 3 13 -8 108 -11 116 -3 3 4 16 3 28 -2 13 -4
29 -4 36 0 8 5 18 6 23 3 13 -8 147 -9 147 -1 0 3 9 4 20 1 20 -5 20 0 20
2796 l0 2801 -6800 0 -6800 0 -1 -27z"/>
<path d="M27 9602 l-27 -3 0 -2800 0 -2799 6799 0 c6790 0 6799 0 6804 20 3
11 1 20 -3 20 -5 0 -5 14 0 30 5 17 5 30 1 30 -4 0 -4 27 -1 60 3 33 3 60 -1
60 -4 0 -4 14 1 30 5 17 6 30 2 30 -4 0 -7 18 -7 40 0 22 2 40 5 40 6 0 4 65
-3 77 -2 4 -1 17 3 28 4 11 4 30 -1 41 -4 12 -5 25 -1 28 7 8 5 124 -4 137 -3
5 -1 9 3 9 5 0 7 17 6 38 -7 89 -8 122 -3 122 7 0 3 168 -4 186 -3 8 -2 14 2
14 4 0 7 41 7 90 0 50 -4 90 -8 90 -5 0 -6 4 -3 9 8 12 11 134 4 146 -3 6 -2
19 2 30 4 11 4 32 -1 48 -4 15 -5 27 -1 27 8 0 6 165 -2 186 -3 8 -2 14 2 14
4 0 7 41 7 90 0 50 -4 90 -8 90 -5 0 -6 4 -3 9 5 8 10 127 6 146 -1 6 -2 14 0
20 5 28 4 105 -2 105 -4 0 -3 14 2 30 5 17 6 30 2 30 -4 0 -7 18 -7 40 0 22 2
40 5 40 6 0 4 65 -3 77 -2 4 -1 17 3 28 4 11 4 30 -1 41 -4 12 -5 25 -1 28 7
8 5 124 -4 137 -3 5 -1 9 3 9 9 0 9 62 0 77 -2 4 -1 17 3 28 4 11 4 32 -1 48
-4 15 -4 27 1 27 4 0 4 16 0 35 -4 19 -5 35 -1 35 3 0 6 16 6 35 0 19 -3 35
-7 35 -4 0 -3 14 2 30 5 17 6 30 2 30 -4 0 -7 23 -7 50 0 28 2 50 5 50 7 0 3
168 -4 186 -3 8 -2 14 2 14 4 0 7 41 7 90 0 50 -4 90 -8 90 -5 0 -6 4 -3 9 8
12 11 139 4 147 -4 3 -2 18 3 33 6 14 10 27 9 28 -9 15 -17 63 -10 63 4 0 4
16 0 35 -4 19 -5 35 -1 35 3 0 6 16 6 35 0 19 -3 35 -7 35 -4 0 -3 14 2 30 5
17 5 30 1 30 -4 0 -4 27 -1 60 3 33 3 60 -1 60 -4 0 -4 14 1 30 5 17 6 30 2
30 -4 0 -7 18 -7 40 0 22 2 40 5 40 6 0 4 65 -3 77 -2 4 -1 17 3 28 4 11 4 30
-1 41 -4 12 -5 25 -1 28 7 8 5 124 -4 137 -3 5 -1 9 3 9 5 0 7 17 6 38 -7 89
-8 122 -3 122 7 0 3 168 -4 186 -3 8 -2 14 2 14 4 0 7 41 7 90 0 50 -4 90 -8
90 -5 0 -6 4 -3 9 8 12 11 134 4 146 -3 6 -2 19 2 30 4 11 4 32 -1 48 -4 15
-5 27 -1 27 8 0 6 165 -2 186 -3 8 -2 14 2 14 6 0 7 27 3 74 -1 4 -12 6 -26 4
-14 -3 -25 -2 -25 1 0 3 -16 6 -35 6 -19 0 -35 -2 -35 -5 0 -7 -89 -4 -96 3
-4 3 -17 2 -30 -3 -14 -6 -26 -6 -29 0 -3 6 -15 6 -30 0 -14 -5 -27 -5 -30 0
-3 5 -18 5 -35 0 -17 -5 -30 -6 -30 -2 0 4 -56 7 -125 7 -69 0 -125 -3 -125
-7 0 -4 -13 -3 -30 2 -18 5 -32 5 -36 -1 -3 -5 -10 -7 -15 -3 -13 8 -107 9
-115 1 -3 -3 -16 -2 -28 3 -13 4 -29 4 -36 0 -8 -5 -18 -6 -23 -3 -12 7 -147
10 -147 3 0 -7 -87 -3 -99 5 -5 3 -12 1 -16 -4 -3 -7 -15 -7 -30 -1 -15 6 -27
6 -30 0 -3 -6 -15 -6 -30 0 -15 6 -27 6 -30 0 -3 -6 -15 -6 -30 0 -15 6 -27 6
-30 0 -3 -6 -15 -6 -30 0 -15 6 -27 6 -30 0 -3 -6 -15 -6 -30 0 -15 6 -27 6
-30 0 -3 -6 -15 -6 -30 0 -15 6 -27 6 -30 0 -3 -6 -15 -6 -30 0 -15 6 -27 6
-30 0 -3 -6 -15 -6 -30 0 -15 6 -27 6 -30 -1 -4 -5 -11 -7 -16 -3 -13 8 -107
9 -115 1 -3 -3 -16 -2 -28 3 -13 4 -29 4 -36 0 -8 -5 -18 -6 -23 -3 -12 7
-147 10 -147 3 0 -7 -89 -4 -96 3 -4 3 -17 2 -30 -3 -14 -6 -26 -6 -29 0 -3 6
-15 6 -30 0 -14 -5 -27 -5 -30 0 -3 5 -18 5 -35 0 -17 -5 -30 -6 -30 -2 0 4
-56 7 -125 7 -69 0 -125 -3 -125 -7 0 -4 -13 -3 -30 2 -18 5 -32 5 -36 -1 -3
-5 -10 -7 -15 -3 -13 8 -107 9 -115 1 -3 -3 -16 -2 -28 3 -13 4 -29 4 -36 0
-8 -5 -18 -6 -23 -3 -12 7 -147 10 -147 3 0 -7 -87 -3 -99 5 -5 3 -12 1 -16
-4 -3 -7 -15 -7 -30 -1 -15 6 -27 6 -30 0 -3 -6 -15 -6 -30 0 -15 6 -27 6 -30
0 -3 -6 -15 -6 -30 0 -15 6 -27 6 -30 0 -3 -6 -15 -6 -30 0 -15 6 -27 6 -30 0
-3 -6 -15 -6 -30 0 -15 6 -27 6 -30 0 -3 -6 -15 -6 -30 0 -15 6 -27 6 -30 0
-3 -6 -15 -6 -30 0 -15 6 -27 6 -30 0 -3 -6 -15 -6 -30 0 -15 6 -27 6 -30 -1
-4 -5 -11 -7 -16 -3 -13 8 -107 9 -115 1 -3 -3 -16 -2 -28 3 -13 4 -29 4 -36
0 -8 -5 -18 -6 -23 -3 -12 7 -147 10 -147 3 0 -7 -89 -4 -96 3 -4 3 -17 2 -30
-3 -14 -6 -26 -6 -29 0 -3 6 -15 6 -30 0 -14 -5 -27 -5 -30 0 -3 5 -18 5 -35
0 -17 -5 -30 -6 -30 -2 0 4 -56 7 -125 7 -69 0 -125 -3 -125 -7 0 -4 -13 -3
-30 2 -18 5 -32 5 -36 -1 -3 -5 -10 -7 -15 -3 -13 8 -107 9 -115 1 -3 -3 -16
-2 -28 3 -13 4 -29 4 -36 0 -8 -5 -18 -6 -23 -3 -12 7 -147 10 -147 3 0 -7
-87 -3 -99 5 -5 3 -12 1 -16 -4 -3 -7 -15 -7 -30 -1 -15 6 -27 6 -30 0 -3 -6
-15 -6 -30 0 -15 6 -27 6 -30 0 -3 -6 -15 -6 -30 0 -15 6 -27 6 -30 0 -3 -6
-15 -6 -30 0 -15 6 -27 6 -30 0 -3 -6 -15 -6 -30 0 -15 6 -27 6 -30 0 -3 -6
-15 -6 -30 0 -15 6 -27 6 -30 0 -3 -6 -15 -6 -30 0 -15 6 -27 6 -30 0 -3 -6
-15 -6 -30 0 -15 6 -27 6 -30 -1 -4 -5 -11 -7 -16 -3 -13 8 -107 9 -115 1 -3
-3 -16 -2 -28 3 -13 4 -29 4 -36 0 -8 -5 -18 -6 -23 -3 -12 7 -147 10 -147 3
0 -7 -89 -4 -96 3 -4 3 -17 2 -30 -3 -14 -6 -26 -6 -29 0 -3 6 -15 6 -30 0
-14 -5 -27 -5 -30 0 -3 5 -18 5 -35 0 -17 -5 -30 -6 -30 -2 0 4 -56 7 -125 7
-69 0 -125 -3 -125 -7 0 -4 -13 -3 -30 2 -18 5 -32 5 -36 -1 -3 -5 -10 -7 -15
-3 -13 8 -107 9 -115 1 -3 -3 -16 -2 -28 3 -13 4 -29 4 -36 0 -8 -5 -18 -6
-23 -3 -12 7 -147 10 -147 3 0 -7 -87 -3 -99 5 -5 3 -12 1 -16 -4 -3 -7 -15
-7 -30 -1 -15 6 -27 6 -30 0 -3 -6 -15 -6 -30 0 -15 6 -27 6 -30 0 -3 -6 -15
-6 -30 0 -15 6 -27 6 -30 0 -3 -6 -15 -6 -30 0 -15 6 -27 6 -30 0 -3 -6 -15
-6 -30 0 -15 6 -27 6 -30 0 -3 -6 -15 -6 -30 0 -15 6 -27 6 -30 0 -3 -6 -15
-6 -30 0 -15 6 -27 6 -30 0 -3 -6 -15 -6 -30 0 -15 6 -27 6 -30 -1 -4 -5 -11
-7 -16 -3 -13 8 -107 9 -115 1 -3 -3 -16 -2 -28 3 -13 4 -29 4 -36 0 -8 -5
-18 -6 -23 -3 -12 7 -147 10 -147 3 0 -7 -89 -4 -96 3 -4 3 -17 2 -30 -3 -14
-6 -26 -6 -29 0 -3 6 -15 6 -30 0 -14 -5 -27 -5 -30 0 -3 5 -18 5 -35 0 -17
-5 -30 -6 -30 -2 0 4 -56 7 -125 7 -69 0 -125 -3 -125 -7 0 -4 -13 -3 -30 2
-17 5 -32 5 -35 0 -3 -5 -16 -6 -28 -1 -12 4 -35 4 -52 1 -16 -3 -40 -3 -52 1
-13 5 -25 4 -28 -1 -4 -6 -13 -7 -24 -1 -9 5 -23 6 -31 1 -7 -4 -19 -6 -26 -3
-17 6 -284 9 -284 3 0 -7 -69 -4 -76 3 -3 3 -17 2 -30 -3 -13 -5 -26 -6 -28
-1 -3 4 -25 5 -49 1 -25 -3 -54 -3 -65 1 -12 5 -24 4 -27 -1 -4 -6 -13 -7 -24
-1 -9 5 -23 6 -31 1 -7 -4 -19 -6 -26 -3 -17 6 -284 9 -284 3 0 -7 -69 -4 -76
3 -3 3 -17 2 -30 -3 -13 -5 -26 -6 -28 -1 -3 4 -25 5 -49 1 -25 -3 -54 -3 -65
1 -12 5 -24 4 -27 -1 -4 -6 -13 -7 -24 -1 -9 5 -23 6 -31 1 -7 -4 -19 -6 -26
-3 -17 6 -284 9 -284 3 0 -7 -69 -4 -76 3 -3 3 -17 2 -30 -3 -13 -5 -26 -6
-28 -1 -3 4 -25 5 -49 1 -25 -3 -54 -3 -65 1 -12 5 -24 4 -27 -1 -4 -6 -13 -7
-24 -1 -9 5 -23 6 -31 1 -7 -4 -19 -6 -26 -3 -17 6 -284 9 -284 3 0 -7 -69 -4
-76 3 -3 3 -17 2 -30 -3 -13 -5 -26 -6 -28 -1 -3 4 -25 5 -49 1 -25 -3 -54 -3
-65 1 -12 5 -24 4 -27 -1 -4 -6 -13 -7 -24 -1 -9 5 -23 6 -31 1 -7 -4 -19 -6
-26 -3 -17 6 -284 9 -284 3 0 -7 -69 -4 -76 3 -3 3 -17 2 -30 -3 -13 -5 -26
-6 -28 -1 -3 4 -25 5 -49 1 -25 -3 -54 -3 -65 1 -12 5 -24 4 -27 -1 -4 -6 -13
-7 -24 -1 -9 5 -23 6 -31 1 -7 -4 -19 -6 -26 -3 -17 6 -284 9 -284 3 0 -7 -69
-4 -76 3 -3 3 -17 2 -30 -3 -13 -5 -26 -6 -28 -1 -3 4 -25 5 -49 1 -25 -3 -54
-3 -65 1 -12 5 -24 4 -27 -1 -4 -6 -13 -7 -24 -1 -9 5 -23 6 -31 1 -7 -4 -19
-6 -26 -3 -17 6 -284 9 -284 3 0 -7 -69 -4 -76 3 -3 3 -17 2 -30 -3 -13 -5
-26 -6 -28 -1 -3 4 -25 5 -49 1 -25 -3 -54 -3 -65 1 -12 5 -24 4 -27 -1 -4 -6
-13 -7 -24 -1 -9 5 -23 6 -31 1 -7 -4 -19 -6 -26 -3 -17 6 -284 9 -284 3 0 -7
-69 -4 -76 3 -3 3 -16 2 -29 -3 -12 -5 -26 -5 -31 -1 -5 3 -21 5 -37 3z m548
-482 c3 5 18 5 35 0 18 -5 30 -5 30 0 0 6 10 6 25 0 15 -6 26 -6 30 1 4 5 11
7 16 3 8 -4 68 -6 149 -3 8 0 24 0 35 -1 11 0 43 -1 70 0 50 0 72 0 100 0 8 0
22 0 30 0 8 0 22 0 30 0 8 0 21 0 28 -1 6 0 21 0 32 1 40 1 130 2 143 1 6 -1
19 -1 27 -1 8 0 22 0 30 0 8 0 22 0 30 0 8 0 22 0 30 0 8 0 21 0 28 -1 6 0 21
0 32 1 11 0 47 1 80 1 33 -1 67 0 75 0 8 0 24 0 35 -1 11 0 43 0 71 1 28 1 55
-1 60 -4 6 -3 16 -2 24 3 7 4 24 4 36 0 14 -6 26 -5 29 0 3 6 15 6 30 0 15 -6
27 -6 30 1 4 5 11 7 16 3 8 -4 68 -6 149 -3 8 0 24 0 35 -1 11 0 43 -1 70 0
50 0 72 0 100 0 8 0 22 0 30 0 8 0 22 0 30 0 8 0 21 0 28 -1 6 0 21 0 32 1 40
1 130 2 143 1 6 -1 19 -1 27 -1 8 0 22 0 30 0 8 0 22 0 30 0 8 0 22 0 30 0 8
0 21 0 28 -1 6 0 21 0 32 1 11 0 47 1 80 1 33 -1 67 0 75 0 8 0 24 0 35 -1 11
0 43 0 71 1 28 1 55 -1 60 -4 6 -3 16 -2 24 3 7 4 24 4 36 0 14 -6 26 -5 29 0
3 6 15 6 30 0 15 -6 27 -6 30 1 4 5 11 7 16 3 8 -4 68 -6 149 -3 8 0 24 0 35
-1 11 0 43 -1 70 0 50 0 72 0 100 0 8 0 22 0 30 0 8 0 22 0 30 0 8 0 21 0 28
-1 6 0 21 0 32 1 40 1 130 2 143 1 6 -1 19 -1 27 -1 8 0 22 0 30 0 8 0 22 0
30 0 8 0 22 0 30 0 8 0 21 0 28 -1 6 0 21 0 32 1 11 0 47 1 80 1 33 -1 67 0
75 0 8 0 24 0 35 -1 11 0 43 0 71 1 28 1 55 -1 60 -4 6 -3 16 -2 24 3 7 4 24
4 36 0 14 -6 26 -5 29 0 3 6 15 6 30 0 15 -6 27 -6 30 1 4 5 11 7 16 3 8 -4
68 -6 149 -3 8 0 24 0 35 -1 11 0 44 0 73 1 29 1 55 -1 58 -4 4 -3 14 -2 23 3
10 5 23 5 31 0 8 -5 21 -5 30 0 9 5 22 5 30 0 7 -4 23 -5 34 0 12 4 30 4 40 0
11 -3 36 -4 55 0 20 3 47 3 61 0 14 -4 35 -3 47 1 12 5 25 4 28 -1 3 -5 18 -5
34 0 15 4 34 4 42 0 7 -5 20 -5 29 0 9 5 22 5 29 1 7 -5 29 -5 49 -1 20 3 48
3 62 0 14 -4 35 -3 47 1 12 5 25 4 28 -1 3 -5 18 -5 34 0 15 4 34 4 42 0 7 -5
20 -5 29 0 9 5 22 5 28 1 7 -4 35 -5 62 -1 27 4 55 3 62 -1 6 -4 19 -4 28 1 9
5 22 5 30 0 8 -5 21 -5 30 0 9 5 22 5 30 0 7 -4 23 -4 36 0 12 5 24 6 27 3 5
-4 49 -5 137 -2 8 0 24 0 35 -1 11 0 43 0 71 1 28 1 55 -1 60 -4 6 -3 16 -2
24 3 7 4 24 4 36 0 14 -6 26 -5 29 0 3 6 15 6 30 0 15 -6 27 -6 30 1 4 5 11 7
16 3 8 -4 68 -6 149 -3 8 0 24 0 35 -1 11 0 44 0 73 1 29 1 55 -1 58 -4 4 -3
14 -2 23 3 10 5 23 5 31 0 8 -5 21 -5 30 0 9 5 22 5 30 0 7 -4 23 -5 34 0 12
4 30 4 40 0 11 -3 36 -4 55 0 20 3 47 3 61 0 14 -4 35 -3 47 1 12 5 25 4 28
-1 3 -5 18 -5 34 0 15 4 34 4 42 0 7 -5 20 -5 29 0 9 5 22 5 29 1 7 -5 29 -5
49 -1 20 3 48 3 62 0 14 -4 35 -3 47 1 12 5 25 4 28 -1 3 -5 18 -5 34 0 15 4
34 4 42 0 7 -5 20 -5 30 0 9 5 19 7 22 3 5 -5 38 -5 130 -2 6 0 21 0 32 -1 11
0 43 0 71 1 28 1 55 -1 60 -4 6 -3 16 -2 24 3 7 4 24 4 36 0 14 -6 26 -5 29 0
3 6 15 6 30 0 15 -6 27 -6 30 1 4 5 11 7 16 3 8 -4 68 -6 149 -3 8 0 24 0 35
-1 27 -1 87 -1 103 -1 6 1 18 1 25 2 6 0 21 0 32 -1 11 0 43 0 71 1 28 1 55
-1 60 -4 6 -3 16 -2 24 3 7 4 24 4 36 0 14 -6 26 -5 29 0 3 6 15 6 30 0 15 -6
27 -6 30 1 4 5 11 7 16 3 8 -4 68 -6 149 -3 8 0 24 0 35 -1 11 0 44 0 73 1 29
1 56 -1 59 -4 3 -3 16 -2 29 3 13 5 26 6 29 0 3 -5 18 -5 34 0 15 4 34 4 42 0
7 -5 20 -5 29 0 9 5 22 5 29 1 7 -5 29 -5 49 -1 20 3 48 3 62 0 14 -4 35 -3
47 1 12 5 25 4 28 -1 3 -5 18 -5 34 0 15 4 34 4 42 0 7 -5 20 -5 29 0 9 5 22
5 28 1 7 -4 35 -5 62 -1 27 4 55 3 62 -1 6 -4 19 -4 28 1 9 5 22 5 30 0 8 -5
21 -5 30 0 9 5 22 5 30 0 7 -4 23 -4 36 0 12 5 24 6 27 3 5 -4 49 -5 137 -2 8
0 24 0 35 -1 11 0 43 0 71 1 28 1 55 -1 60 -4 6 -3 16 -2 24 3 7 4 24 4 36 0
14 -6 26 -5 29 0 3 6 15 6 30 0 15 -6 27 -6 30 1 4 5 11 7 16 3 8 -4 68 -6
149 -3 8 0 24 0 35 -1 11 0 44 0 73 1 29 1 55 -1 58 -4 4 -3 14 -2 23 3 10 5
23 5 31 0 8 -5 21 -5 30 0 9 5 22 5 30 0 7 -4 23 -5 34 0 12 4 30 4 40 0 11
-3 36 -4 55 0 20 3 47 3 61 0 14 -4 35 -3 47 1 12 5 25 4 28 -1 3 -5 18 -5 34
0 15 4 34 4 42 0 7 -5 20 -5 29 0 9 5 22 5 29 1 7 -5 29 -5 49 -1 20 3 48 3
62 0 14 -4 35 -3 47 1 12 5 25 4 28 -1 3 -5 18 -5 34 0 15 4 34 4 42 0 7 -5
20 -5 30 0 9 5 19 7 22 3 5 -5 38 -5 130 -2 6 0 21 0 32 -1 11 0 43 0 71 1 28
1 55 -1 60 -4 6 -3 16 -2 24 3 7 4 24 4 36 0 14 -6 26 -5 29 0 3 6 15 6 30 0
15 -6 27 -6 30 1 4 5 11 7 16 3 8 -4 68 -6 149 -3 8 0 24 0 35 -1 27 -1 87 -1
103 -1 6 1 18 1 25 2 6 0 21 0 32 -1 11 0 43 0 71 1 28 1 55 -1 60 -4 6 -3 16
-2 24 3 7 4 24 4 36 0 14 -6 26 -5 29 0 3 6 15 6 30 0 15 -6 27 -6 30 1 4 5
11 7 16 3 8 -4 68 -6 149 -3 8 0 24 0 35 -1 11 0 44 0 73 1 29 1 56 -1 59 -4
3 -3 16 -2 29 3 13 5 26 6 29 0 3 -5 18 -5 34 0 15 4 34 4 41 0 7 -4 26 -4 41
0 16 5 29 5 29 1 0 -4 10 -7 21 -7 21 1 31 -18 30 -51 -2 -32 -2 -41 0 -90 2
-29 0 -55 -3 -59 -4 -3 -2 -19 2 -35 5 -16 5 -29 1 -29 -4 0 -5 -17 -1 -37 3
-21 3 -55 -1 -75 -3 -21 -3 -38 2 -38 4 0 4 -12 0 -27 -4 -16 -6 -39 -4 -53 5
-49 5 -109 -2 -120 -3 -5 -2 -10 4 -10 6 0 6 -11 1 -30 -5 -17 -5 -30 0 -30 5
0 5 -13 0 -30 -5 -17 -5 -30 0 -30 5 0 5 -13 0 -30 -5 -17 -5 -30 0 -30 5 0 5
-13 0 -29 -4 -15 -4 -34 0 -42 5 -7 5 -20 0 -29 -5 -9 -5 -22 0 -30 5 -8 5
-21 0 -30 -5 -9 -5 -22 0 -30 5 -8 5 -21 0 -31 -5 -9 -7 -19 -3 -22 7 -8 8
-106 0 -113 -3 -3 -1 -19 3 -35 5 -16 5 -29 1 -29 -4 0 -5 -17 -1 -37 3 -21 3
-55 -1 -75 -3 -21 -3 -38 2 -38 5 0 6 -6 3 -13 -9 -24 -10 -71 -3 -99 4 -16 4
-28 -1 -28 -5 0 -5 -13 0 -30 5 -17 5 -30 0 -30 -5 0 -5 -13 0 -30 5 -17 5
-30 0 -30 -5 0 -5 -13 0 -30 5 -17 5 -30 0 -30 -5 0 -5 -13 0 -30 5 -17 5 -30
0 -30 -5 0 -5 -13 0 -30 5 -17 5 -30 0 -30 -5 0 -5 -13 0 -30 5 -17 5 -30 0
-30 -5 0 -5 -13 0 -30 5 -17 5 -30 0 -30 -5 0 -5 -13 0 -30 5 -19 5 -30 -1
-30 -6 0 -7 -5 -4 -10 8 -14 11 -108 3 -116 -4 -3 -2 -19 2 -35 5 -16 5 -29 1
-29 -4 0 -5 -17 -1 -37 3 -21 3 -55 -1 -75 -3 -21 -3 -38 2 -38 4 0 4 -12 0
-27 -4 -16 -6 -39 -4 -53 5 -49 5 -109 -2 -120 -3 -5 -2 -10 4 -10 6 0 6 -11
1 -30 -5 -17 -5 -30 0 -30 5 0 5 -13 0 -30 -5 -17 -5 -30 0 -30 5 0 5 -13 0
-30 -5 -17 -5 -30 0 -30 5 0 5 -13 0 -29 -4 -15 -4 -34 0 -42 5 -7 5 -20 0
-29 -5 -9 -5 -22 0 -30 5 -8 5 -21 0 -30 -5 -9 -5 -22 0 -30 5 -8 5 -21 0 -31
-5 -9 -7 -19 -3 -22 7 -8 8 -106 0 -113 -3 -3 -1 -19 3 -35 5 -16 5 -29 1 -29
-4 0 -5 -17 -1 -37 3 -21 3 -55 -1 -75 -3 -21 -3 -38 2 -38 5 0 6 -6 3 -13 -9
-24 -10 -71 -3 -99 4 -16 4 -28 -1 -28 -5 0 -5 -13 0 -30 5 -17 5 -30 0 -30
-5 0 -5 -13 0 -30 5 -17 5 -30 0 -30 -5 0 -5 -13 0 -30 5 -17 5 -30 0 -30 -5
0 -5 -13 0 -30 5 -17 5 -30 0 -30 -5 0 -5 -13 0 -30 5 -17 5 -30 0 -30 -5 0
-5 -13 0 -30 5 -17 5 -30 0 -30 -5 0 -5 -13 0 -30 5 -17 5 -30 0 -30 -5 0 -5
-13 0 -30 5 -19 5 -30 -1 -30 -6 0 -7 -5 -4 -10 8 -14 11 -108 3 -116 -4 -3
-2 -19 2 -35 5 -16 5 -29 1 -29 -4 0 -5 -17 -1 -37 3 -21 3 -55 -1 -75 -3 -21
-3 -38 2 -38 4 0 4 -12 0 -27 -4 -16 -6 -41 -4 -58 7 -61 8 -255 1 -255 -3 0
-4 -9 -1 -19 4 -16 0 -20 -25 -19 -16 1 -33 -2 -39 -5 -5 -3 -15 -2 -22 3 -8
4 -26 4 -41 0 -15 -4 -33 -4 -40 0 -7 4 -26 4 -41 0 -16 -5 -31 -5 -34 0 -3 5
-11 7 -19 4 -17 -7 -146 -10 -146 -4 0 3 -24 4 -52 2 -64 -3 -68 -3 -93 -2
-11 0 -46 0 -78 0 -33 0 -63 2 -67 5 -5 3 -11 1 -14 -4 -4 -6 -18 -6 -35 -1
-16 4 -32 6 -34 3 -5 -4 -117 -4 -182 0 -16 1 -39 -1 -51 -5 -11 -3 -27 -3
-34 2 -7 4 -25 4 -40 0 -15 -4 -33 -4 -40 0 -7 4 -26 4 -41 0 -16 -5 -31 -5
-34 0 -3 4 -21 4 -40 0 -20 -4 -48 -5 -63 -1 -15 4 -44 4 -64 1 -21 -4 -40 -5
-43 -2 -3 3 -26 4 -53 3 -51 -2 -57 -2 -118 -1 -23 1 -46 0 -50 -1 -5 -1 -13
0 -19 1 -5 1 -30 1 -55 1 -25 -1 -49 -2 -55 -2 -5 0 -56 1 -111 2 -56 1 -106
-1 -111 -4 -5 -3 -15 -2 -22 3 -8 4 -26 4 -41 0 -15 -4 -33 -4 -40 0 -7 4 -26
4 -41 0 -16 -5 -31 -5 -34 0 -3 5 -11 7 -19 4 -17 -7 -146 -10 -146 -4 0 3
-24 4 -52 2 -64 -3 -68 -3 -93 -2 -11 0 -46 0 -78 0 -33 0 -63 2 -67 5 -5 3
-11 1 -14 -4 -4 -5 -18 -6 -33 -2 -15 4 -45 5 -68 2 -22 -3 -60 -4 -85 -1 -25
3 -69 3 -97 -1 -29 -3 -53 -3 -53 0 0 4 -24 5 -52 3 -64 -3 -68 -3 -93 -2 -11
0 -46 0 -78 0 -33 0 -63 2 -67 5 -5 3 -11 1 -14 -4 -4 -6 -18 -6 -35 -1 -16 4
-32 6 -34 3 -5 -4 -117 -4 -182 0 -16 1 -39 -1 -51 -5 -11 -3 -27 -3 -34 2 -7
4 -25 4 -40 0 -15 -4 -33 -4 -40 0 -7 4 -26 4 -41 0 -16 -5 -31 -5 -34 0 -3 4
-21 4 -40 0 -20 -4 -48 -5 -63 -1 -15 4 -44 4 -64 1 -21 -4 -40 -5 -43 -2 -3
3 -26 4 -53 3 -51 -2 -57 -2 -118 -1 -23 1 -46 0 -50 -1 -5 -1 -13 0 -19 1 -5
1 -30 1 -55 1 -25 -1 -49 -2 -55 -2 -5 0 -56 1 -111 2 -56 1 -106 -1 -111 -4
-5 -3 -15 -2 -22 3 -8 4 -26 4 -41 0 -15 -4 -33 -4 -40 0 -7 4 -26 4 -41 0
-16 -5 -31 -5 -34 0 -3 5 -11 7 -19 4 -17 -7 -146 -10 -146 -4 0 3 -24 4 -52
2 -64 -3 -68 -3 -93 -2 -11 0 -46 0 -78 0 -33 0 -63 2 -67 5 -5 3 -11 1 -14
-4 -4 -6 -18 -6 -35 -1 -16 4 -32 6 -34 3 -5 -4 -117 -4 -182 0 -16 1 -39 -1
-51 -5 -11 -3 -27 -3 -34 2 -7 4 -25 4 -40 0 -15 -4 -33 -4 -40 0 -7 4 -26 4
-41 0 -16 -5 -31 -5 -34 0 -3 4 -21 4 -40 0 -20 -4 -48 -5 -63 -1 -15 4 -44 4
-64 1 -21 -4 -40 -5 -43 -2 -3 3 -26 4 -53 3 -51 -2 -57 -2 -118 -1 -23 1 -46
0 -50 -1 -5 -1 -13 0 -19 1 -5 1 -30 1 -55 1 -25 -1 -49 -2 -55 -2 -5 0 -56 1
-111 2 -56 1 -106 -1 -111 -4 -5 -3 -15 -2 -22 3 -8 4 -26 4 -41 0 -15 -4 -33
-4 -40 0 -7 4 -26 4 -41 0 -16 -5 -31 -5 -34 0 -3 5 -11 7 -19 4 -17 -7 -146
-10 -146 -4 0 3 -24 4 -52 2 -64 -3 -68 -3 -93 -2 -11 0 -46 0 -78 0 -33 0
-63 2 -67 5 -5 3 -11 1 -14 -4 -4 -6 -18 -6 -35 -1 -16 4 -32 6 -34 3 -5 -4
-117 -4 -182 0 -16 1 -39 -1 -51 -5 -11 -3 -27 -3 -34 2 -7 4 -25 4 -40 0 -15
-4 -33 -4 -40 0 -7 4 -26 4 -41 0 -16 -5 -31 -5 -34 0 -3 4 -21 4 -40 0 -20
-4 -48 -5 -63 -1 -15 4 -44 4 -64 1 -21 -4 -40 -5 -43 -2 -3 3 -26 4 -53 3
-51 -2 -57 -2 -118 -1 -23 1 -46 0 -50 -1 -5 -1 -13 0 -19 1 -5 1 -30 1 -55 1
-25 -1 -49 -2 -55 -2 -5 0 -56 1 -111 2 -56 1 -106 -1 -111 -4 -5 -3 -15 -2
-22 3 -8 4 -26 4 -41 0 -15 -4 -33 -4 -40 0 -7 4 -26 4 -41 0 -16 -5 -31 -5
-34 0 -3 5 -11 7 -19 4 -17 -7 -146 -10 -146 -4 0 3 -24 4 -52 2 -64 -3 -68
-3 -93 -2 -11 0 -46 0 -78 0 -33 0 -63 2 -67 5 -5 3 -11 1 -14 -4 -4 -6 -18
-6 -35 -1 -16 4 -32 6 -34 3 -5 -4 -117 -4 -182 0 -16 1 -39 -1 -51 -5 -11 -3
-27 -3 -34 2 -7 4 -25 4 -40 0 -15 -4 -33 -4 -40 0 -7 4 -26 4 -41 0 -16 -5
-31 -5 -34 0 -3 4 -21 4 -40 0 -20 -4 -48 -5 -63 -1 -15 4 -44 4 -64 1 -21 -4
-40 -5 -43 -2 -3 3 -26 4 -53 3 -51 -2 -57 -2 -118 -1 -23 1 -46 0 -50 -1 -5
-1 -13 0 -19 1 -5 1 -30 1 -55 1 -25 -1 -49 -2 -55 -2 -5 0 -56 1 -111 2 -56
1 -106 -1 -111 -4 -5 -3 -15 -2 -22 3 -8 4 -26 4 -41 0 -15 -4 -33 -4 -40 0
-7 4 -26 4 -41 0 -16 -5 -31 -5 -34 0 -3 5 -11 7 -19 4 -17 -7 -146 -10 -146
-4 0 3 -24 4 -52 2 -64 -3 -68 -3 -93 -2 -11 0 -46 0 -78 0 -33 0 -63 2 -67 5
-5 3 -11 1 -14 -4 -4 -6 -18 -6 -35 -1 -16 4 -32 6 -34 3 -5 -4 -117 -4 -182
0 -16 1 -39 -1 -51 -5 -11 -3 -27 -3 -34 2 -7 4 -25 4 -40 0 -15 -4 -33 -4
-40 0 -7 4 -26 4 -41 0 -16 -5 -31 -5 -34 0 -3 4 -21 4 -40 0 -20 -4 -48 -5
-63 -1 -15 4 -44 4 -64 1 -21 -4 -40 -5 -43 -2 -3 3 -26 4 -53 3 -51 -2 -57
-2 -118 -1 -23 1 -46 0 -50 -1 -5 -1 -13 0 -19 1 -5 1 -30 1 -55 1 -25 -1 -49
-2 -55 -2 -5 0 -56 1 -111 2 -56 1 -106 -1 -111 -4 -5 -3 -15 -2 -22 3 -8 4
-26 4 -41 0 -15 -4 -33 -4 -40 0 -7 4 -26 4 -41 0 -17 -5 -31 -5 -35 1 -3 5
-10 7 -15 4 -9 -6 -125 -7 -184 -2 -26 2 -31 7 -35 37 -3 19 -3 52 1 73 3 20
2 37 -3 37 -5 0 -6 5 -2 11 4 7 6 41 5 78 -1 36 -2 72 -2 79 0 6 0 32 0 57 0
55 0 59 2 115 0 25 0 50 -1 55 -1 6 -2 13 -1 17 0 4 1 45 1 90 -1 108 -1 105
1 158 0 25 0 50 -1 55 -1 6 -2 14 -1 19 1 4 1 54 1 110 -1 112 -1 115 1 203 0
34 -2 66 -5 71 -2 4 -1 25 4 45 4 22 4 39 -1 43 -5 3 -7 10 -3 15 8 13 9 167
2 175 -4 3 -2 18 2 34 4 16 6 31 3 33 -7 7 -6 194 1 206 4 5 2 12 -4 16 -6 4
-7 11 -4 17 4 6 6 56 5 112 -1 55 -2 108 -2 116 1 8 1 44 0 80 0 36 0 71 0 78
0 6 0 32 0 57 0 55 0 59 2 115 0 25 0 50 -1 55 -1 6 -2 13 -1 17 0 4 1 45 1
90 -1 108 -1 105 1 158 0 25 0 50 -1 55 -1 6 -2 14 -1 19 1 4 1 54 1 110 -1
112 -1 115 1 203 0 34 -2 66 -5 71 -2 4 -1 25 4 45 4 22 4 39 -1 43 -5 3 -7
10 -3 15 8 13 9 167 2 175 -4 3 -2 18 2 34 4 16 6 31 3 33 -7 7 -6 194 1 206
4 5 2 12 -4 16 -6 4 -7 11 -4 17 4 6 6 56 5 112 -1 55 -2 108 -2 116 1 8 1 44
0 80 0 36 0 71 0 78 0 6 0 32 0 57 0 61 0 63 2 117 1 27 0 50 -2 53 -3 2 -3
28 1 57 3 29 3 72 -1 96 -3 23 -2 42 1 42 4 0 5 13 2 29 -3 25 0 30 19 33 13
2 34 1 46 -4 12 -4 25 -3 28 2z"/>
<path d="M3067 8054 c-2 -3 -23 -6 -45 -9 -187 -19 -358 -139 -439 -306 -75
-154 -99 -306 -102 -650 -1 -134 -2 -251 -2 -259 1 -23 0 -304 0 -315 0 -5 2
-107 5 -225 5 -224 12 -290 47 -425 13 -49 61 -159 71 -163 4 -2 8 -10 8 -17
0 -20 106 -130 164 -169 54 -37 166 -84 220 -91 109 -15 150 -19 221 -19 242
1 383 46 504 162 50 48 121 150 121 175 0 7 4 17 9 23 12 12 49 165 58 239 4
33 7 134 7 225 l1 165 -98 5 c-53 3 -97 3 -97 0 0 -4 -119 -4 -127 0 -11 5
-115 1 -121 -5 -4 -3 -7 -77 -8 -163 -2 -225 -12 -309 -43 -371 -40 -77 -103
-109 -211 -106 -154 5 -223 78 -247 264 -9 68 -8 1376 1 1445 22 175 98 249
256 249 77 1 132 -16 165 -49 62 -62 77 -138 79 -413 l1 -155 210 1 c116 1
218 2 227 2 15 1 16 17 13 184 -2 100 -6 193 -8 207 -3 14 -8 48 -12 75 -4 28
-10 55 -13 60 -4 6 -7 15 -8 20 -10 59 -69 170 -119 227 -59 66 -177 137 -255
153 -19 4 -39 10 -45 13 -5 4 -21 8 -35 10 -43 5 -348 11 -353 6z"/>
<path d="M8330 8049 c-66 -14 -90 -19 -112 -28 -13 -5 -26 -9 -31 -9 -4 -1
-33 -15 -64 -32 -75 -41 -144 -100 -187 -159 -38 -51 -100 -196 -91 -211 3 -5
2 -11 -3 -14 -15 -9 -22 -217 -10 -321 22 -187 130 -344 393 -570 39 -33 75
-64 81 -70 6 -5 42 -37 80 -70 201 -175 297 -291 325 -398 13 -46 18 -220 7
-252 -3 -11 -9 -30 -13 -42 -4 -13 -11 -23 -16 -23 -5 0 -9 -6 -9 -12 -1 -16
-36 -41 -77 -56 -49 -17 -153 -9 -198 14 -74 38 -141 157 -160 284 -2 19 -7
45 -9 58 -3 12 -6 48 -7 79 l-3 55 -40 -6 c-23 -3 -52 -8 -66 -11 -14 -3 -36
-8 -50 -10 -14 -2 -36 -7 -50 -10 -32 -8 -56 -12 -100 -19 -58 -10 -80 -15
-91 -22 -10 -6 -7 -118 5 -174 1 -8 6 -31 10 -50 4 -19 8 -42 10 -50 2 -8 6
-22 9 -30 3 -8 11 -33 17 -55 43 -141 171 -296 292 -354 113 -53 206 -73 348
-73 84 0 146 6 190 17 36 9 71 17 78 17 6 1 12 5 12 10 0 4 7 8 16 8 25 0 126
65 175 112 63 61 96 109 134 191 46 103 58 166 57 302 -1 84 -4 113 -18 175
-3 14 -8 36 -11 49 -6 34 -43 121 -65 153 -10 14 -18 29 -18 33 0 6 -59 94
-70 105 -3 3 -16 19 -29 35 -39 51 -124 138 -191 195 -36 30 -74 64 -86 75
-11 11 -62 56 -112 99 -51 44 -92 84 -92 90 0 5 -3 6 -6 3 -4 -4 -32 20 -63
52 -90 93 -113 127 -137 198 -23 67 -23 243 0 243 5 0 6 3 3 6 -15 15 60 99
103 116 109 43 236 0 287 -95 14 -28 18 -42 29 -97 3 -14 7 -33 10 -42 9 -31
14 -63 16 -105 2 -65 6 -67 84 -53 38 7 78 14 89 16 11 2 38 6 60 10 22 3 69
12 105 18 l65 12 -1 45 c-2 83 -33 225 -66 303 -31 73 -99 175 -146 218 -55
49 -171 105 -257 122 -72 15 -270 18 -335 5z"/>
<path d="M4589 8030 l-22 -6 -1 -1287 -1 -1287 27 -9 c16 -6 30 -6 33 -1 3 6
16 5 30 0 15 -6 27 -6 30 1 4 5 11 7 16 3 13 -8 328 -8 336 0 3 3 6 270 6 594
l0 589 105 -1 c82 -1 106 -4 113 -16 8 -15 47 -158 54 -198 2 -12 6 -26 9 -30
3 -5 7 -21 10 -36 3 -15 12 -50 20 -79 8 -29 17 -63 20 -77 3 -14 15 -59 26
-100 11 -41 22 -82 24 -90 2 -8 9 -35 16 -60 7 -25 14 -52 15 -60 2 -8 8 -30
14 -48 9 -32 11 -37 16 -57 1 -5 19 -74 40 -152 20 -77 38 -148 39 -157 3 -20
26 -45 26 -29 0 8 9 9 30 3 17 -5 30 -5 30 0 0 4 16 4 35 0 19 -4 35 -5 35 -1
0 3 23 6 50 6 28 0 50 -3 50 -7 0 -4 14 -3 30 2 17 5 30 6 30 2 0 -4 20 -7 45
-7 25 0 45 3 45 7 0 4 13 3 30 -2 25 -7 30 -5 35 12 4 11 2 32 -3 46 -6 15
-18 54 -27 87 -9 33 -25 89 -35 125 -11 36 -38 130 -60 210 -22 80 -50 177
-61 215 -24 83 -28 97 -34 122 -11 46 -87 310 -95 328 -5 11 -12 34 -14 50 -3
17 -8 42 -12 57 -6 24 -2 29 42 50 108 49 216 201 239 333 2 17 7 41 10 54 4
22 18 191 18 216 -1 45 -16 201 -19 207 -3 5 -8 21 -10 36 -29 165 -165 316
-339 377 -27 9 -57 20 -65 23 -8 3 -19 6 -25 7 -5 0 -26 4 -45 8 -76 15 -98
18 -170 23 -102 7 -713 10 -741 4z m755 -334 c38 -9 103 -43 126 -66 58 -58
90 -184 86 -334 -4 -145 -38 -253 -93 -293 -14 -10 -31 -24 -38 -30 -8 -7 -22
-14 -32 -16 -10 -2 -25 -7 -33 -10 -33 -13 -120 -22 -215 -22 l-100 0 -2 60
c-2 33 -2 78 -2 100 0 22 0 73 0 113 0 110 0 218 0 260 0 20 0 60 0 87 0 28 0
76 1 108 l1 57 136 -4 c75 -2 149 -7 165 -10z"/>
<path d="M6745 8030 l-50 -5 0 -1289 c0 -1244 1 -1289 18 -1292 11 -1 21 -5
24 -8 3 -3 13 -1 22 4 10 5 23 5 31 0 8 -5 21 -5 30 0 9 5 22 5 30 0 8 -5 21
-5 30 0 9 5 22 5 30 0 7 -4 23 -4 36 0 12 5 25 6 28 3 8 -8 102 -7 116 2 5 3
10 1 10 -5 0 -7 6 -8 18 -2 9 5 23 7 30 5 8 -3 12 5 13 24 3 161 0 2555 -4
2559 -7 7 -349 10 -412 4z"/>
<path d="M9825 8032 l-41 -3 0 -1294 0 -1295 26 -1 c79 -3 191 1 200 6 5 3 10
2 10 -4 0 -6 11 -6 30 -1 17 5 30 5 30 0 0 -5 13 -5 30 0 17 5 30 6 30 2 0 -4
15 -6 32 -5 18 1 45 2 59 2 l26 1 -1 575 -1 575 95 0 c253 1 336 9 440 41 108
34 171 71 240 139 62 63 130 173 130 213 0 9 4 17 8 17 5 0 9 6 9 13 0 6 4 28
8 47 15 74 18 109 18 235 1 196 -18 295 -83 431 -78 162 -224 265 -420 294
-67 10 -771 20 -875 12z m750 -345 c86 -23 145 -78 164 -152 31 -125 30 -339
-3 -450 -23 -76 -92 -134 -180 -150 -54 -11 -279 -14 -291 -4 -8 6 -13 648 -6
757 1 11 30 13 149 9 81 -3 156 -7 167 -10z"/>
</g>
</svg>
